Coordinates
version=1
nRows=10
nColumns=46
inDegrees=yes

Units are S.I. units (second, meters, Newtons, ...)
Angles are in degrees.

endheader
time	pelvis_tilt	pelvis_list	pelvis_rotation	pelvis_tx	pelvis_ty	pelvis_tz	bb_angle	bb_tx	bb_ty	bb_tz	hip_flexion_r	hip_adduction_r	hip_rotation_r	knee_angle_r	knee_angle_r_beta	ankle_angle_r	subtalar_angle_r	mtp_angle_r	crank_angle_r	hip_flexion_l	hip_adduction_l	hip_rotation_l	knee_angle_l	knee_angle_l_beta	ankle_angle_l	subtalar_angle_l	mtp_angle_l	crank_angle_l	lumbar_extension	lumbar_bending	lumbar_rotation	arm_flex_r	arm_add_r	arm_rot_r	elbow_flex_r	pro_sup_r	wrist_flex_r	wrist_dev_r	arm_flex_l	arm_add_l	arm_rot_l	elbow_flex_l	pro_sup_l	wrist_flex_l	wrist_dev_l
      2.50500000	    -19.13515241	    -10.42041554	     -4.67127449	      0.08474775	      1.11300864	     -0.27874078	      0.00000000	      0.50000000	      0.00000000	      0.25000000	     84.29921341	      2.72174589	     -5.98490593	     84.05407464	      1.46702035	     16.59408009	    -14.88306343	      0.00000000	      0.00000000	     54.25477401	    -10.86608685	      8.42029803	     58.61431812	      1.02301284	    -14.14521960	    -18.01952476	      0.00000000	      0.00000000	    -56.74905859	      3.13145410	      3.86267410	     89.82487997	     -1.90421086	     23.87717478	     42.19389206	     21.64925977	      0.00000000	      0.00000000	     89.81127272	    -10.60767491	     28.18260117	     44.31847145	     22.43896307	      0.00000000	      0.00000000
      2.51000000	    -18.95524467	    -10.12024203	     -4.18822658	      0.08472756	      1.11262748	     -0.27820172	      0.00000000	      0.50000000	      0.00000000	      0.25000000	     83.25942887	      2.64190901	     -5.54323003	     82.12175193	      1.43329496	     16.50666528	    -15.05104308	      0.00000000	      0.00000000	     54.79846082	    -10.33308307	      8.46158970	     60.56707435	      1.05709487	    -13.51338725	    -18.33757684	      0.00000000	      0.00000000	    -56.81507809	      3.05469595	      3.29306897	     89.82202800	     -2.00770023	     23.84147743	     42.18826876	     21.62552991	      0.00000000	      0.00000000	     89.81550152	    -10.53244268	     28.22589627	     44.36061312	     22.42437866	      0.00000000	      0.00000000
      2.51500000	    -18.77712983	    -10.35341718	     -3.73294218	      0.08468969	      1.11182807	     -0.27751717	      0.00000000	      0.50000000	      0.00000000	      0.25000000	     82.18188506	      2.72683288	     -5.68540533	     80.11257205	      1.39822815	     15.71389507	    -16.08597519	      0.00000000	      0.00000000	     55.63483181	    -10.36496509	      8.70110911	     62.91010514	      1.09798847	    -11.95111812	    -17.68466966	      0.00000000	      0.00000000	    -56.93957062	      3.56621339	      3.19094609	     89.82338035	     -1.74397504	     23.97450476	     42.03813547	     21.48963572	      0.00000000	      0.00000000	     89.81333907	    -10.88371485	     28.24751696	     44.55013115	     22.33060741	      0.00000000	      0.00000000
      2.52000000	    -18.59821604	    -10.23861201	     -3.28122288	      0.08477413	      1.11105434	     -0.27670697	      0.00000000	      0.50000000	      0.00000000	      0.25000000	     81.16649427	      2.71397699	     -5.43808783	     78.21553999	      1.36511870	     14.95085647	    -16.70396966	      0.00000000	      0.00000000	     56.36565527	    -10.14803748	      8.64509296	     65.08008701	      1.13586180	    -10.79151262	    -17.45031272	      0.00000000	      0.00000000	    -57.00278454	      3.70180482	      2.80017463	     89.82207255	     -1.66375923	     24.00637260	     41.91843826	     21.34450247	      0.00000000	      0.00000000	     89.81409194	    -11.04754220	     28.41335441	     44.69704561	     22.21603421	      0.00000000	      0.00000000
      2.52500000	    -18.35356960	     -9.94309391	     -2.70362144	      0.08489446	      1.11018343	     -0.27619589	      0.00000000	      0.50000000	      0.00000000	      0.25000000	     80.14546541	      2.43024112	     -5.04136244	     76.48179352	      1.33485911	     14.25301710	    -16.76219539	      0.00000000	      0.00000000	     57.06284603	     -9.65838339	      8.59153393	     67.29884397	      1.17458641	     -9.89938341	    -17.52270341	      0.00000000	      0.00000000	    -57.10864394	      3.83812643	      2.30603326	     89.81953910	     -1.67256357	     24.00490747	     41.87453803	     21.29720716	      0.00000000	      0.00000000	     89.81496050	    -11.06250006	     28.47624821	     44.73893213	     22.17467535	      0.00000000	      0.00000000
      2.53000000	    -18.19414712	     -9.83940682	     -2.18944196	      0.08499432	      1.10918012	     -0.27525109	      0.00000000	      0.50000000	      0.00000000	      0.25000000	     79.13137527	      2.34451850	     -4.83660392	     74.59388842	      1.30190895	     13.22319887	    -17.48842281	      0.00000000	      0.00000000	     57.96133358	     -9.46782078	      8.59817690	     69.57749215	      1.21435632	     -8.69881232	    -16.74764063	      0.00000000	      0.00000000	    -57.12131248	      4.07051468	      1.84755047	     89.81880715	     -1.49219552	     24.09316621	     41.66925772	     21.15323293	      0.00000000	      0.00000000	     89.81610043	    -11.31229307	     28.65346604	     44.86057027	     22.05346201	      0.00000000	      0.00000000
      2.53500000	    -17.96484514	     -9.55125435	     -1.62809338	      0.08515529	      1.10821098	     -0.27455359	      0.00000000	      0.50000000	      0.00000000	      0.25000000	     78.05846580	      2.05757938	     -4.50624541	     72.83340519	      1.27118273	     12.30146189	    -17.73735795	      0.00000000	      0.00000000	     58.76283271	     -9.07953343	      8.46197931	     71.80529530	      1.25323882	     -7.74911916	    -16.45613740	      0.00000000	      0.00000000	    -57.19077112	      4.23030718	      1.30754656	     89.81788130	     -1.40250529	     24.15795397	     41.53402441	     21.03794360	      0.00000000	      0.00000000	     89.81745687	    -11.46894725	     28.84764543	     44.91315498	     21.93370795	      0.00000000	      0.00000000
      2.54000000	    -17.74168411	     -9.04767439	     -1.05524943	      0.08547529	      1.10735931	     -0.27378405	      0.00000000	      0.50000000	      0.00000000	      0.25000000	     76.99316126	      1.66417238	     -3.96118136	     71.14981909	      1.24179861	     11.76170471	    -17.51898809	      0.00000000	      0.00000000	     59.52113786	     -8.55005335	      8.10291191	     73.89930838	      1.28978625	     -7.42757768	    -16.60764606	      0.00000000	      0.00000000	    -57.25529155	      4.20772548	      0.69853476	     89.81501855	     -1.53852492	     24.10879924	     41.52867025	     21.02843424	      0.00000000	      0.00000000	     89.81956277	    -11.35048666	     28.91284652	     44.93331303	     21.92743643	      0.00000000	      0.00000000
      2.54500000	    -17.58164822	     -8.94026334	     -0.55815778	      0.08567083	      1.10604892	     -0.27268400	      0.00000000	      0.50000000	      0.00000000	      0.25000000	     76.00273384	      1.48707355	     -3.80334081	     69.46207696	      1.21234195	     10.11042646	    -18.06961860	      0.00000000	      0.00000000	     60.53301656	     -8.38681394	      8.16576973	     76.24802118	      1.33077902	     -6.05929400	    -15.76003887	      0.00000000	      0.00000000	    -57.23397246	      4.47986087	      0.22461891	     89.81430138	     -1.19955861	     24.31676615	     41.18459835	     20.88324063	      0.00000000	      0.00000000	     89.81961130	    -11.81905528	     29.24626634	     44.98137781	     21.78771602	      0.00000000	      0.00000000
      2.55000000	    -17.34111390	     -8.44438540	      0.01365300	      0.08603755	      1.10510037	     -0.27176991	      0.00000000	      0.50000000	      0.00000000	      0.25000000	     74.90713777	      1.02253835	     -3.37475061	     67.85471953	      1.18428827	      9.34393039	    -17.76095062	      0.00000000	      0.00000000	     61.34761062	     -7.86514776	      7.87670596	     78.38134419	      1.36801253	     -5.68345707	    -15.89685629	      0.00000000	      0.00000000	    -57.31884021	      4.43180852	     -0.42184230	     89.81093210	     -1.31186433	     24.28469688	     41.17820122	     20.87373490	      0.00000000	      0.00000000	     89.82220314	    -11.74352920	     29.31473081	     44.98377441	     21.77417204	      0.00000000	      0.00000000
